<svg width="185" height="51" xmlns="http://www.w3.org/2000/svg" xmlns:xlink="http://www.w3.org/1999/xlink" xml:space="preserve" overflow="hidden"><g transform="translate(-156 -194)"><g><g><g><g><path d="M0.291643 22.6025C0.60967 15.0405 4.86182 7.50205 13.7195 3.10855 22.5065-1.24962 31.1521-0.460437 39.2324 5.16984 39.3116 5.22515 39.3911 5.28045 39.4708 5.33584 41.4783 6.73124 43.5553 8.17489 40.587 10.8826 40.0704 11.3519 39.6545 11.9802 39.2474 12.5953 38.0299 14.4345 36.8915 16.1541 33.3784 13.1441 27.1355 7.78474 17.9952 9.46911 13.0363 15.8415 8.19523 22.0607 8.59571 30.9654 15.0859 35.7594 19.029 38.6814 17.5747 40.3963 15.9397 42.3242 15.5381 42.7978 15.1256 43.2841 14.7796 43.8043 12.4979 47.2566 10.7092 45.4118 9.18126 43.8361 8.89498 43.5407 8.61786 43.255 8.34835 43.0152 3.01255 38.2212 0.232749 32.1315 0.291643 22.6025ZM155.901 43.3451C154.57 38.8456 156.785 38.398 160.661 38.4805 168.375 38.6336 174.477 32.1552 174.312 24.6639 174.147 17.0901 168.01 10.7766 160.189 11.3891 155.756 11.7401 155.738 9.82864 155.714 7.35553 155.71 6.92379 155.705 6.47495 155.678 6.01803 155.454 2.40194 155.843 0.328862 160.437 0.399535 173.699 0.599775 184.736 11.2125 184.995 24.5461 185.255 37.5146 174.747 48.5395 161.744 49.3288 157.068 49.5997 154.441 48.6338 155.901 43.3451ZM65.1534 18.6773C65.1261 20.5511 65.0987 22.4254 65.0987 24.2986 65.0987 26.2794 65.1248 28.2614 65.1508 30.2429L65.1508 30.2431 65.1508 30.2433 65.1508 30.2435 65.1508 30.2437 65.1508 30.2439C65.2124 34.9189 65.274 39.5912 64.9927 44.2401 64.7218 48.6336 66.8184 48.9752 70.1871 48.7514 70.6512 48.7208 71.1149 48.7203 71.5657 48.7198 73.8951 48.7172 75.877 48.715 75.7585 44.5699 75.3934 31.4719 75.4051 18.3503 75.7585 5.25222 75.8686 1.0796 73.8791 1.07221 71.5013 1.06339 71.0801 1.06182 70.6467 1.06022 70.2107 1.0354 66.8773 0.846939 64.6982 1.09429 64.9927 5.52314 65.2817 9.89128 65.2176 14.2826 65.1534 18.6767L65.1534 18.6769 65.1534 18.677 65.1534 18.6771 65.1534 18.6773ZM125.143 19.0973 125.143 19.0966 125.143 19.0964C125.207 14.5651 125.271 10.0325 124.982 5.52311 124.699 1.10605 126.843 0.823355 130.188 1.0236 130.632 1.05063 131.073 1.05312 131.501 1.05554 133.871 1.06894 135.856 1.08016 135.736 5.24041 135.383 18.3385 135.383 31.46 135.736 44.5463 135.845 48.6984 133.87 48.7071 131.522 48.7175 131.079 48.7195 130.623 48.7214 130.164 48.7514 126.796 48.9634 124.699 48.6218 124.97 44.2401 125.269 39.7173 125.205 35.1654 125.142 30.613 125.115 28.7038 125.088 26.7947 125.088 24.8875 125.088 22.9593 125.116 21.029 125.143 19.0986L125.143 19.0979 125.143 19.0973ZM45.3255 39.834C45.3414 39.1634 45.3574 38.492 45.3574 37.8208 45.3574 37.0924 45.3338 36.3628 45.3102 35.6344L45.3102 35.6341C45.2574 34.0064 45.2048 32.3836 45.4163 30.7888 45.9818 26.5014 44.1089 25.4294 40.1394 25.724 36.2294 26.0255 32.2701 25.9134 28.3336 25.8019 27.9655 25.7915 27.5975 25.7811 27.2298 25.771L27.1366 25.7686C24.028 25.687 21.7758 25.6278 21.7291 30.1645 21.682 34.9231 23.9317 34.935 27.43 34.8878 36.4174 34.7583 36.4762 34.8761 36.4644 44.0399 36.4644 44.2048 36.4637 44.3674 36.4629 44.5275L36.4629 44.5276 36.4629 44.5277C36.4496 47.4022 36.4398 49.5004 40.8579 49.4111 45.0865 49.3287 45.7108 47.7032 45.3927 44.2637 45.2549 42.7958 45.2901 41.3167 45.3255 39.8341L45.3255 39.834ZM94.7695 25.5708C92.8261 27.2214 93.9715 28.3237 94.992 29.306 95.3261 29.6275 95.6468 29.9362 95.8414 30.247 98.5977 34.6397 101.503 38.9347 104.438 43.2725L104.438 43.2726 104.438 43.2728C105.454 44.774 106.473 46.2802 107.491 47.7974 97.7261 50.1768 96.4422 49.6938 91.2831 41.7902 88.8463 38.0561 86.4225 34.322 83.6962 30.1219 82.759 28.678 81.786 27.1791 80.7645 25.6061L94.2278 25.6061C92.9003 24.9468 93.1514 23.9423 93.3899 22.988 93.4751 22.6469 93.5589 22.3121 93.5681 22.0018 93.7213 17.2078 91.7424 13.6506 87.4903 11.5894 85.8883 10.812 84.8165 10.0934 85.0403 8.22058 85.1396 7.40197 85.0325 6.4761 84.9265 5.56014 84.7184 3.76108 84.5147 2.00021 85.8883 1.16507 87.6073 0.117381 89.9325 1.46771 91.9459 2.63699 92.264 2.82173 92.5743 3.00194 92.8732 3.16747 98.0794 6.0415 101.449 10.3997 102.885 16.1713 105.1 24.9936 103.981 26.2776 94.7695 25.5708Z" fill="#000000" fill-rule="evenodd" fill-opacity="1" transform="matrix(1 0 0 1.00541 156 195)"/></g></g></g></g></g></svg>